# xmcd
#
# Track frame offsets: 
#        150
#        14737
#        29877
#        46453
#        62339
#        75455
#        91642
#        108139
#
# Disc length: 1734 seconds
#
# Revision: 0
# Processed by: cddbd v1.5.2PL0 Copyright (c) Steve Scherf et al.
# Submitted via: ExactAudioCopy v1.0b2
#
DISCID=5906c408
DTITLE=Matt Jenkins - Quarter Of A Century
DYEAR=2008
DGENRE=Country
TTITLE0=Want You Back
TTITLE1=Going Nowhere
TTITLE2=Before You're Gone
TTITLE3=Some Kind Of Sexy
TTITLE4=Back By Tonight
TTITLE5=Back To You
TTITLE6=I'll Remember For You
TTITLE7=Quarter Of A Century
EXTD=
EXTT0=
EXTT1=
EXTT2=
EXTT3=
EXTT4=
EXTT5=
EXTT6=
EXTT7=
PLAYORDER=
